Coordinates
version=1
nRows=17
nColumns=40
inDegrees=yes

Units are S.I. units (second, meters, Newtons, ...)
If the header above contains a line with 'inDegrees', this indicates whether rotational values are in degrees (yes) or radians (no).

endheader
time	pelvis_tilt	pelvis_list	pelvis_rotation	pelvis_tx	pelvis_ty	pelvis_tz	hip_flexion_r	hip_adduction_r	hip_rotation_r	knee_angle_r	knee_angle_r_beta	ankle_angle_r	subtalar_angle_r	mtp_angle_r	hip_flexion_l	hip_adduction_l	hip_rotation_l	knee_angle_l	knee_angle_l_beta	ankle_angle_l	subtalar_angle_l	mtp_angle_l	lumbar_extension	lumbar_bending	lumbar_rotation	arm_flex_r	arm_add_r	arm_rot_r	elbow_flex_r	pro_sup_r	wrist_flex_r	wrist_dev_r	arm_flex_l	arm_add_l	arm_rot_l	elbow_flex_l	pro_sup_l	wrist_flex_l	wrist_dev_l
      8.97500000	    -27.23666902	     30.73630040	    -89.99011576	      0.34390107	      0.81530593	     -0.52448087	     11.54805041	     28.36053480	    -39.98034591	      0.02298450	      0.00040116	     11.82369971	      0.00000000	      0.00000000	     67.74988766	      3.18945787	     39.98158967	     51.13171293	      0.89241674	    -13.42205525	      0.00000000	      0.00000000	     32.35592152	     36.32091223	    -88.22334514	     16.67008319	    -18.24971751	     44.59576571	     23.87102349	     42.33987422	      0.00000000	      0.00000000	     18.55950116	      4.42193316	    -22.12664363	     17.85462304	     32.40183855	      0.00000000	      0.00000000
      8.98000000	    -27.19132452	     30.59543662	    -89.99012514	      0.34404588	      0.81542459	     -0.52450121	     11.40365363	     28.31650110	    -39.98033563	      0.02300761	      0.00040156	     11.94815193	      0.00000000	      0.00000000	     67.60003514	      3.24384308	     39.98157930	     51.15199864	      0.89277080	    -13.30468315	      0.00000000	      0.00000000	     32.14417962	     36.22033493	    -88.10883566	     16.90079085	    -17.75138513	     44.65219529	     22.86482462	     42.26336863	      0.00000000	      0.00000000	     19.08112104	      4.19087303	    -21.27460400	     16.70587836	     32.73911549	      0.00000000	      0.00000000
      8.98500000	    -27.14561324	     30.62600937	    -89.99013251	      0.34408773	      0.81549161	     -0.52451066	     11.44945161	     28.26687281	    -39.98035434	      0.02299121	      0.00040127	     11.85224086	      0.00000000	      0.00000000	     67.60378876	      3.27430085	     39.98156699	     51.09349516	      0.89174972	    -13.38234681	      0.00000000	      0.00000000	     32.22553557	     36.20625680	    -88.39652024	     17.33518722	    -17.55879351	     45.61791389	     22.30330986	     42.19409001	      0.00000000	      0.00000000	     19.25011451	      4.54635204	    -24.39386274	     16.96475275	     31.25843907	      0.00000000	      0.00000000
      8.99000000	    -27.18778848	     30.75279281	    -89.99012214	      0.34394247	      0.81531080	     -0.52451674	     11.56461437	     28.31855825	    -39.98036363	      0.02294129	      0.00040040	     11.90328391	      0.00000000	      0.00000000	     67.75740853	      3.22400259	     39.98156983	     51.09728638	      0.89181589	    -13.42728482	      0.00000000	      0.00000000	     32.36593887	     36.27014683	    -88.31744446	     16.88978414	    -17.99334221	     44.75020168	     23.39244532	     42.26769648	      0.00000000	      0.00000000	     18.94229609	      4.55414542	    -23.56775747	     17.38394604	     31.77124350	      0.00000000	      0.00000000
      8.99500000	    -27.10615991	     30.75244108	    -89.99011676	      0.34393664	      0.81530144	     -0.52453507	     11.57755789	     28.24559289	    -39.98037673	      0.02296813	      0.00040087	     12.01455895	      0.00000000	      0.00000000	     67.73650030	      3.29847461	     39.98154546	     51.07890426	      0.89149506	    -13.35941543	      0.00000000	      0.00000000	     32.35050212	     36.13806696	    -88.32821044	     16.84514570	    -17.99221946	     44.67029602	     23.51489131	     42.27435620	      0.00000000	      0.00000000	     18.89579541	      4.48871255	    -23.43475553	     17.41201410	     31.81274867	      0.00000000	      0.00000000
      9.00000000	    -27.13953734	     30.67460666	    -89.99012924	      0.34391321	      0.81544154	     -0.52446243	     11.48180426	     28.27920337	    -39.98036463	      0.02295115	      0.00040057	     11.93562877	      0.00000000	      0.00000000	     67.65167862	      3.25471391	     39.98156499	     51.08514680	      0.89160401	    -13.32775297	      0.00000000	      0.00000000	     32.26063729	     36.15776054	    -88.34954355	     17.24135848	    -17.54618721	     45.31651083	     22.34712384	     42.16616570	      0.00000000	      0.00000000	     19.15314514	      4.44805132	    -23.59965459	     16.89246502	     31.38940350	      0.00000000	      0.00000000
      9.00500000	    -27.10671874	     30.70570637	    -89.99012339	      0.34385224	      0.81540488	     -0.52442015	     11.51419061	     28.25327654	    -39.98036630	      0.02296642	      0.00040084	     11.99049492	      0.00000000	      0.00000000	     67.68504735	      3.28325468	     39.98155531	     51.09507414	      0.89177728	    -13.29859063	      0.00000000	      0.00000000	     32.29813987	     36.10512927	    -88.38142367	     17.15498690	    -17.63075308	     45.15858110	     22.57536323	     42.17922881	      0.00000000	      0.00000000	     19.02833837	      4.45535292	    -23.50548638	     17.03428460	     31.43657110	      0.00000000	      0.00000000
      9.01000000	    -27.12234449	     30.75877402	    -89.99012296	      0.34376252	      0.81534534	     -0.52439929	     11.56517305	     28.26832684	    -39.98037403	      0.02294824	      0.00040052	     11.97281772	      0.00000000	      0.00000000	     67.74524774	      3.26196537	     39.98156182	     51.10174929	      0.89189378	    -13.29390259	      0.00000000	      0.00000000	     32.36046169	     36.12208608	    -88.37252752	     17.07583392	    -17.70770912	     45.02986439	     22.73097569	     42.18651037	      0.00000000	      0.00000000	     18.95402015	      4.46105214	    -23.40578054	     17.11499163	     31.46507415	      0.00000000	      0.00000000
      9.01500000	    -26.97095221	     30.77179366	    -89.99011440	      0.34372372	      0.81533213	     -0.52436006	     11.58907946	     28.12743412	    -39.98038755	      0.02294091	      0.00040039	     12.07227476	      0.00000000	      0.00000000	     67.71622688	      3.40276196	     39.98151096	     51.05158915	      0.89101832	    -13.28385345	      0.00000000	      0.00000000	     32.35373843	     35.91825941	    -88.33848246	     16.88959987	    -17.79894549	     44.88376404	     22.92910966	     42.20049492	      0.00000000	      0.00000000	     18.81386739	      4.47567101	    -23.28012805	     17.20973617	     31.53100956	      0.00000000	      0.00000000
      9.02000000	    -27.14408759	     30.82681985	    -89.99012250	      0.34351225	      0.81531128	     -0.52434718	     11.62157516	     28.30780810	    -39.98037782	      0.02292203	      0.00040006	     11.92286105	      0.00000000	      0.00000000	     67.81570283	      3.21338094	     39.98156581	     51.09694984	      0.89181001	    -13.24088323	      0.00000000	      0.00000000	     32.43239366	     36.10689531	    -88.36910923	     16.91362264	    -17.81159897	     44.80020322	     22.98397142	     42.19758026	      0.00000000	      0.00000000	     18.84600132	      4.45809959	    -23.16855793	     17.19830179	     31.53312921	      0.00000000	      0.00000000
      9.02500000	    -27.13496675	     30.85277114	    -89.99011602	      0.34344876	      0.81526429	     -0.52431748	     11.64745529	     28.30213794	    -39.98037653	      0.02292971	      0.00040020	     11.95369096	      0.00000000	      0.00000000	     67.84233202	      3.22047224	     39.98156671	     51.10287104	      0.89191336	    -13.22298011	      0.00000000	      0.00000000	     32.45561189	     36.08171710	    -88.35589922	     16.90452201	    -17.84867887	     44.71348922	     23.04931836	     42.19700160	      0.00000000	      0.00000000	     18.80994533	      4.45792508	    -23.06820784	     17.19293590	     31.54298834	      0.00000000	      0.00000000
      9.03000000	    -27.08704700	     30.88036009	    -89.99011217	      0.34347470	      0.81520997	     -0.52430604	     11.68159841	     28.25144446	    -39.98038165	      0.02293849	      0.00040035	     12.01372537	      0.00000000	      0.00000000	     67.85944009	      3.26926832	     39.98156312	     51.08800591	      0.89165391	    -13.21014977	      0.00000000	      0.00000000	     32.47857690	     36.03395054	    -88.37445819	     16.87559440	    -17.87746740	     44.60169695	     23.18931542	     42.20346257	      0.00000000	      0.00000000	     18.75468335	      4.44547858	    -22.95488033	     17.24211935	     31.58102264	      0.00000000	      0.00000000
      9.03500000	    -26.94052562	     30.88284612	    -89.99010623	      0.34337877	      0.81521254	     -0.52420476	     11.69236163	     28.11826071	    -39.98039449	      0.02292890	      0.00040018	     12.09849298	      0.00000000	      0.00000000	     67.81095710	      3.39309077	     39.98151130	     51.04479466	      0.89089973	    -13.20656706	      0.00000000	      0.00000000	     32.48222745	     35.80382343	    -88.30429645	     16.64260683	    -18.00393907	     44.47212064	     23.31121683	     42.21273571	      0.00000000	      0.00000000	     18.61021227	      4.50760897	    -22.83182943	     17.32625831	     31.64721828	      0.00000000	      0.00000000
      9.04000000	    -27.07619256	     30.92694473	    -89.99009544	      0.34341624	      0.81515012	     -0.52417023	     11.72502634	     28.23898640	    -39.98036869	      0.02297490	      0.00040099	     12.05402067	      0.00000000	      0.00000000	     67.88740082	      3.26930026	     39.98153364	     51.09396811	      0.89175797	    -13.14434230	      0.00000000	      0.00000000	     32.53544260	     36.04245052	    -88.37083624	     16.77400823	    -17.96230924	     44.38547522	     23.43177969	     42.21523560	      0.00000000	      0.00000000	     18.63529813	      4.43925362	    -22.72523200	     17.35832662	     31.67632507	      0.00000000	      0.00000000
      9.04500000	    -27.17365691	     30.95679163	    -89.99010588	      0.34322630	      0.81512110	     -0.52414866	     11.73857239	     28.34237891	    -39.98036352	      0.02293000	      0.00040020	     11.89146779	      0.00000000	      0.00000000	     67.94386604	      3.15373375	     39.98157407	     51.11481059	      0.89212174	    -13.12249401	      0.00000000	      0.00000000	     32.56713337	     36.09911462	    -88.31072112	     16.77814770	    -17.95558812	     44.40700890	     23.24925574	     42.19555354	      0.00000000	      0.00000000	     18.70775877	      4.49046424	    -22.65648356	     17.30116762	     31.66180808	      0.00000000	      0.00000000
      9.05000000	    -27.05159742	     30.97046757	    -89.99009306	      0.34335118	      0.81508999	     -0.52416493	     11.77557999	     28.21302126	    -39.98036983	      0.02295023	      0.00040056	     12.02541450	      0.00000000	      0.00000000	     67.91702724	      3.27736190	     39.98153308	     51.06454711	      0.89124448	    -13.10871890	      0.00000000	      0.00000000	     32.55225513	     35.97382235	    -88.33073613	     16.68620346	    -17.97962020	     44.29622113	     23.40332317	     42.20510223	      0.00000000	      0.00000000	     18.61298623	      4.45708473	    -22.54438603	     17.36069980	     31.71416775	      0.00000000	      0.00000000
      9.05500000	    -27.13460114	     30.97958467	    -89.99008606	      0.34341816	      0.81503780	     -0.52405530	     11.76721279	     28.28363880	    -39.98035825	      0.02299368	      0.00040132	     12.00172770	      0.00000000	      0.00000000	     67.94768054	      3.20835994	     39.98153319	     51.11851921	      0.89218647	    -13.11762672	      0.00000000	      0.00000000	     32.59654725	     36.10825728	    -88.34238356	     16.78632625	    -17.97691439	     44.23070043	     23.44849042	     42.20245088	      0.00000000	      0.00000000	     18.62201763	      4.44515082	    -22.44589835	     17.38699821	     31.74042762	      0.00000000	      0.00000000
